<svg width="32" height="31" viewBox="0 0 32 31" fill="none" xmlns="http://www.w3.org/2000/svg">
<path fill-rule="evenodd" clip-rule="evenodd" d="M0.617188 5.14989H12.5572V9.06386L13.5871 8.23991L14.6248 9.06386L15.6625 8.23991L16.6925 9.06386C16.6925 7.7591 16.7001 6.45471 16.7001 5.14989H28.6326V15.2591C27.2211 14.3359 25.535 13.794 23.7115 13.794C21.2397 13.794 18.9888 14.8012 17.3715 16.4264C15.876 17.9141 14.8995 19.9359 14.7546 22.179L14.6248 22.0798L13.5871 22.8962L12.5572 22.0798V24.9102H14.9987C15.0902 25.2841 15.197 25.6427 15.3344 25.9936H0.617188V5.14989ZM29.3192 17.1662C27.885 15.7322 25.9013 14.8469 23.7115 14.8469C21.5295 14.8469 19.5459 15.7322 18.1116 17.1662C16.6772 18.6008 15.7922 20.5842 15.7922 22.7664C15.7922 24.9557 16.6772 26.9398 18.1116 28.3737C19.5458 29.8083 21.5295 30.6934 23.7115 30.6934C25.9012 30.6934 27.8849 29.8083 29.3192 28.3737C30.7535 26.9397 31.6386 24.9557 31.6386 22.7664C31.6386 20.5842 30.7535 18.6008 29.3192 17.1662ZM18.6761 23.8421C18.226 23.4302 18.2031 22.7283 18.6226 22.278C19.0424 21.8356 19.7441 21.8127 20.1868 22.2246L22.1551 24.0633L27.2211 19.1502C27.6636 18.7229 28.3655 18.7304 28.7928 19.1728C29.22 19.6154 29.2048 20.3172 28.7699 20.7445L22.941 26.3904C22.5213 26.8023 21.8424 26.81 21.415 26.4057L18.6761 23.8421ZM1.31904 4.09714L4.06555 0H25.1763L27.923 4.09714H16.5856L16.288 1.07584H12.9541L12.6565 4.09714H1.31904ZM11.8554 11.4442H17.3943C18.2489 11.4442 18.9507 12.1386 18.9507 12.9928C18.9507 13.8476 18.2488 14.5494 17.3943 14.5494H11.8554C11.0008 14.5494 10.2989 13.8476 10.2989 12.9928C10.2989 12.1385 11.0008 11.4442 11.8554 11.4442Z" fill="#28927B"/>
</svg>
