<svg width="33" height="33" viewBox="0 0 33 33" fill="none" xmlns="http://www.w3.org/2000/svg">
<path d="M19.9931 20.996C21.3074 19.6817 23.0546 18.958 24.913 18.958C26.3364 18.958 27.6932 19.3836 28.8415 20.1728C29.4575 18.6239 29.7998 16.9372 29.7998 15.1712C29.7998 7.68272 23.7079 1.59082 16.2205 1.59082C8.73252 1.59082 2.64062 7.68272 2.64062 15.1712C2.64062 22.6592 8.73252 28.7511 16.2205 28.7511C16.9885 28.7511 17.7408 28.684 18.474 28.5608C18.1337 27.7327 17.9548 26.8378 17.9548 25.9151C17.9551 24.0568 18.679 22.3096 19.9931 20.996ZM16.6998 23.799H15.3847V21.6908C14.1737 21.6697 12.921 21.294 12.1901 20.7722L12.691 19.3736C13.4425 19.8745 14.5282 20.271 15.6971 20.271C17.1796 20.271 18.1814 19.4151 18.1814 18.225C18.1814 17.0767 17.3678 16.3672 15.8227 15.7407C13.6934 14.9059 12.3783 13.9455 12.3783 12.129C12.3783 10.3965 13.6099 9.08136 15.5308 8.76812V6.65945H16.8253V8.68433C18.0775 8.72584 18.9335 9.05996 19.5388 9.41523L19.0173 10.7933C18.5787 10.5424 17.7228 10.083 16.3865 10.083C14.7796 10.083 14.174 11.0433 14.174 11.8784C14.174 12.964 14.9461 13.5067 16.7627 14.2583C18.9128 15.1351 19.9985 16.2208 19.9985 18.0786C19.9985 19.7276 18.8502 21.2729 16.7 21.6276L16.6998 23.799Z" fill="#FA3E62"/>
<path d="M28.9368 22.2857C28.7579 22.1065 28.5647 21.9466 28.3662 21.7963C27.4265 21.0835 26.2893 20.6924 25.0897 20.6924C23.6359 20.6924 22.2697 21.2583 21.2415 22.2864C20.2136 23.3141 19.6475 24.6803 19.6475 26.1336C19.6475 26.9428 19.829 27.7225 20.1621 28.4348C20.4271 29.0007 20.786 29.5251 21.2415 29.9802C22.2694 31.0081 23.6359 31.5742 25.0892 31.5742C26.5425 31.5742 27.9089 31.0083 28.9368 29.9807C29.9642 28.9533 30.5303 27.5869 30.5303 26.1336C30.5303 24.6795 29.9644 23.3133 28.9368 22.2857ZM27.5554 27.2703H25.0023C24.5831 27.2703 24.2443 26.9315 24.2443 26.5125V26.4514V22.9508C24.2443 22.5324 24.5831 22.1931 25.0023 22.1931C25.4207 22.1931 25.76 22.5324 25.76 22.9508V24.0087V25.2065V25.7543H27.0119H27.5551C27.9741 25.7543 28.3129 26.0939 28.3129 26.5123C28.3131 26.9315 27.9744 27.2703 27.5554 27.2703Z" fill="#FA3E62"/>
</svg>
