<svg width="29" height="29" viewBox="0 0 29 29" fill="none" xmlns="http://www.w3.org/2000/svg">
<g clip-path="url(#clip0_1626_878)">
<path fill-rule="evenodd" clip-rule="evenodd" d="M0 28.3228V9.28316H8.24382V18.2271C8.24382 19.0627 8.92141 19.7403 9.77963 19.7403H14.3645C15.2228 19.7403 15.9003 19.0627 15.9003 18.2271V9.28316H24.1441V17.8883C20.9144 17.9786 18.3396 20.6211 18.3396 23.8736C18.3396 25.7481 19.2205 27.4421 20.5982 28.5488H0.225883C0.0903418 28.5487 0 28.4358 0 28.3228ZM8.28896 8.01837H0.271025L3.47824 0.587689C3.52344 0.497348 3.59119 0.452148 3.68153 0.452148H8.94401L8.28896 8.01837ZM10.2313 0.452148H13.9128L14.5903 8.65077V18.2271C14.5903 18.3401 14.5 18.453 14.3645 18.453H9.77957C9.64403 18.453 9.55369 18.3401 9.55369 18.2271V8.65071L10.2313 0.452148ZM15.1776 0.452148H20.4401C20.5304 0.452148 20.6208 0.497348 20.6434 0.587689L23.8731 8.01837H15.8326L15.1776 0.452148Z" fill="#4287EF"/>
<path fill-rule="evenodd" clip-rule="evenodd" d="M24.3246 19.1982C26.8994 19.1982 28.9999 21.2761 28.9999 23.8735C28.9999 26.4482 26.8994 28.5261 24.3246 28.5261C21.7499 28.5261 19.6494 26.4482 19.6494 23.8735C19.6494 21.2761 21.7499 19.1982 24.3246 19.1982ZM24.3246 26.3353C23.8955 26.3353 22.4275 25.2511 22.2016 25.0931C21.4337 24.5962 22.179 23.4218 22.9469 23.9186L23.6245 24.3478V22.0892C23.6245 21.1632 25.0248 21.1632 25.0248 22.0892V24.3478L25.7024 23.9186C26.4703 23.4217 27.2156 24.5962 26.4477 25.0931C26.1089 25.319 24.7312 26.3353 24.3246 26.3353Z" fill="#4287EF"/>
</g>
<defs>
<clipPath id="clip0_1626_878">
<rect width="29" height="29" fill="white"/>
</clipPath>
</defs>
</svg>
