<svg width="33" height="33" viewBox="0 0 33 33" fill="none" xmlns="http://www.w3.org/2000/svg">
<path d="M25.1425 16.1172L17.4062 18.6959L25.1425 21.2747L32.8787 18.6959L25.1425 16.1172Z" fill="#4287EF"/>
<path d="M0 18.6959L7.73623 21.2747L15.4725 18.6959L7.73623 16.1172L0 18.6959Z" fill="#4287EF"/>
<path d="M16.7451 0.0496086C16.5466 -0.0165362 16.332 -0.0165362 16.1335 0.0496086L8.70312 2.52643L16.4394 5.10517L24.1756 2.52643L16.7451 0.0496086Z" fill="#4287EF"/>
<path d="M8.70312 32.9999L15.4723 30.7435V20.7266L8.70312 22.983V32.9999Z" fill="#4287EF"/>
<path d="M0 30.0465C0 30.4628 0.26632 30.8323 0.661255 30.9639L6.7692 32.9999V22.983L0 20.7266V30.0465Z" fill="#4287EF"/>
<path d="M17.4062 30.7435L24.1755 32.9999V22.983L17.4062 20.7266V30.7435Z" fill="#4287EF"/>
<path d="M26.1094 32.9999L32.2173 30.9639C32.6122 30.8323 32.8786 30.4627 32.8786 30.0465V20.7266L26.1094 22.983V32.9999Z" fill="#4287EF"/>
<path d="M8.70312 14.7754L15.4723 17.0318V6.83361L8.70312 4.57715V14.7754Z" fill="#4287EF"/>
<path d="M24.1755 14.7754V4.57715L17.4062 6.83361V17.0318L24.1755 14.7754Z" fill="#4287EF"/>
</svg>
