<svg width="32" height="31" viewBox="0 0 32 31" fill="none" xmlns="http://www.w3.org/2000/svg">
<path fill-rule="evenodd" clip-rule="evenodd" d="M0 5.14989H11.94V9.06386L12.9699 8.23991L14.0076 9.06386L15.0453 8.23991L16.0753 9.06386C16.0753 7.7591 16.0829 6.45471 16.0829 5.14989H28.0154V15.2591C26.6039 14.3359 24.9178 13.794 23.0943 13.794C20.6225 13.794 18.3717 14.8012 16.7543 16.4264C15.2589 17.9141 14.2823 19.9359 14.1374 22.179L14.0076 22.0798L12.9699 22.8962L11.94 22.0798V24.9102H14.3815C14.473 25.2841 14.5798 25.6427 14.7172 25.9936H0V5.14989ZM28.702 17.1662C27.2678 15.7322 25.2841 14.8469 23.0943 14.8469C20.9123 14.8469 18.9287 15.7322 17.4944 17.1662C16.06 18.6008 15.175 20.5842 15.175 22.7664C15.175 24.9557 16.06 26.9398 17.4944 28.3737C18.9286 29.8083 20.9123 30.6934 23.0943 30.6934C25.284 30.6934 27.2677 29.8083 28.702 28.3737C30.1363 26.9397 31.0214 24.9557 31.0214 22.7664C31.0214 20.5842 30.1363 18.6008 28.702 17.1662ZM18.0589 23.8421C17.6089 23.4302 17.5859 22.7283 18.0054 22.278C18.4252 21.8356 19.127 21.8127 19.5696 22.2246L21.5379 24.0633L26.6039 19.1502C27.0464 18.7229 27.7484 18.7304 28.1756 19.1728C28.6028 19.6154 28.5876 20.3172 28.1527 20.7445L22.3238 26.3904C21.9041 26.8023 21.2252 26.81 20.7978 26.4057L18.0589 23.8421ZM0.701851 4.09714L3.44836 0H24.5592L27.3058 4.09714H15.9684L15.6708 1.07584H12.3369L12.0393 4.09714H0.701851ZM11.2382 11.4442H16.7771C17.6317 11.4442 18.3335 12.1386 18.3335 12.9928C18.3335 13.8476 17.6316 14.5494 16.7771 14.5494H11.2382C10.3836 14.5494 9.68172 13.8476 9.68172 12.9928C9.68172 12.1385 10.3836 11.4442 11.2382 11.4442Z" fill="#28927B"/>
</svg>
