<svg width="33" height="33" viewBox="0 0 33 33" fill="none" xmlns="http://www.w3.org/2000/svg">
<path fill-rule="evenodd" clip-rule="evenodd" d="M24.6115 19.5921C24.6115 19.2888 24.8577 19.0427 25.161 19.0427C25.4645 19.0427 25.7106 19.2888 25.7106 19.5921V25.1752C25.7106 25.4784 25.4644 25.7247 25.161 25.7247H21.6114C21.3079 25.7247 21.0619 25.4784 21.0619 25.1752C21.0619 24.8716 21.308 24.6255 21.6114 24.6255H24.6115V19.5921ZM25.161 17.3639C29.4748 17.3639 32.9719 20.8613 32.9719 25.1752C32.9719 29.4889 29.4749 32.986 25.161 32.986C20.8472 32.986 17.3502 29.4889 17.3502 25.1752C17.3503 20.8613 20.8472 17.3639 25.161 17.3639ZM14.2891 0L19.0604 2.75444L4.77114 11.0043V14.9325L9.4937 17.6589V13.7311L23.783 5.48084L28.5785 8.25V16.9444C27.5263 16.5071 26.372 16.265 25.1611 16.265C20.2402 16.265 16.2512 20.2543 16.2512 25.1751C16.2512 27.2808 16.982 29.2156 18.2032 30.7401L14.2891 33L0 24.7501V8.25L14.2891 0Z" fill="#D7B339"/>
</svg>
