<svg width="28" height="28" viewBox="0 0 28 28" fill="none" xmlns="http://www.w3.org/2000/svg">
<path fill-rule="evenodd" clip-rule="evenodd" d="M11.9966 9.00372H16.004C16.2687 8.99917 16.5211 8.89142 16.7074 8.70345C16.8938 8.51547 16.9993 8.26215 17.0015 7.99748V0H10.9991V7.99748C10.9979 8.1292 11.0229 8.25986 11.0725 8.38189C11.1221 8.50392 11.1954 8.61492 11.2881 8.70848C11.3809 8.80203 11.4912 8.87629 11.6128 8.92696C11.7344 8.97764 11.8648 9.00373 11.9966 9.00372Z" fill="#E04F4A"/>
<path fill-rule="evenodd" clip-rule="evenodd" d="M27.4137 0.586326C27.0372 0.21144 26.5276 0.000697991 25.9963 7.77872e-05H18.9963V7.99756C18.9975 8.79417 18.6828 9.55876 18.1213 10.1238C17.8437 10.4024 17.5136 10.6231 17.1501 10.7733C16.7867 10.9235 16.397 11.0001 16.0038 10.9988H11.9963C11.6019 11.0011 11.211 10.925 10.8463 10.7749C10.4816 10.6248 10.1504 10.4037 9.87197 10.1244C9.59351 9.84515 9.37336 9.5133 9.22431 9.14817C9.07527 8.78304 9.00031 8.39192 9.0038 7.99756V7.77872e-05H2.00382C1.74004 -0.00225673 1.47843 0.0479775 1.23427 0.147848C0.990109 0.247719 0.768289 0.395226 0.581757 0.581757C0.395226 0.768289 0.247719 0.990109 0.147848 1.23427C0.0479775 1.47843 -0.00225673 1.74004 7.77872e-05 2.00382V25.9963C-0.00225673 26.26 0.0479775 26.5216 0.147848 26.7658C0.247719 27.01 0.395226 27.2318 0.581757 27.4183C0.768289 27.6048 0.990109 27.7524 1.23427 27.8522C1.47843 27.9521 1.74004 28.0023 2.00382 28H16.0038C15.1266 27.234 14.4162 26.2958 13.9168 25.2437C13.4174 24.1917 13.1396 23.0482 13.1007 21.8842C13.0618 20.7203 13.2626 19.5608 13.6906 18.4777C14.1187 17.3947 14.7648 16.4111 15.5889 15.5883C16.413 14.7654 17.3974 14.1207 18.4811 13.6942C19.5648 13.2678 20.7246 13.0687 21.8885 13.1093C23.0524 13.1499 24.1955 13.4294 25.2468 13.9303C26.2981 14.4312 27.2353 15.143 28 16.0213V2.02132C28.0011 1.48446 27.7905 0.968812 27.4137 0.586326ZM6.00256 24.0013H4.99631C4.74676 23.9779 4.5149 23.8623 4.34612 23.677C4.17734 23.4917 4.0838 23.25 4.0838 22.9994C4.0838 22.7487 4.17734 22.5071 4.34612 22.3218C4.5149 22.1365 4.74676 22.0209 4.99631 21.9975H6.00256C6.25212 22.0209 6.48398 22.1365 6.65275 22.3218C6.82153 22.5071 6.91508 22.7487 6.91508 22.9994C6.91508 23.25 6.82153 23.4917 6.65275 23.677C6.48398 23.8623 6.25212 23.9779 6.00256 24.0013ZM9.0038 24.0013C8.80405 24.003 8.6083 23.9452 8.44149 23.8353C8.27468 23.7254 8.14436 23.5684 8.06711 23.3841C7.98987 23.1999 7.96921 22.9969 8.00775 22.8009C8.0463 22.6049 8.14231 22.4248 8.28356 22.2835C8.42482 22.1423 8.60491 22.0463 8.80092 22.0077C8.99692 21.9692 9.19996 21.9898 9.38418 22.0671C9.5684 22.1443 9.72547 22.2746 9.83537 22.4415C9.94526 22.6083 10.003 22.804 10.0013 23.0038C9.99901 23.2676 9.89319 23.52 9.70661 23.7066C9.52004 23.8931 9.26765 23.999 9.0038 24.0013ZM9.0038 20.0025H4.99631C4.74676 19.9792 4.5149 19.8635 4.34612 19.6782C4.17734 19.4929 4.0838 19.2513 4.0838 19.0006C4.0838 18.75 4.17734 18.5084 4.34612 18.3231C4.5149 18.1378 4.74676 18.0221 4.99631 17.9988H9.0038C9.25336 18.0221 9.48522 18.1378 9.65399 18.3231C9.82277 18.5084 9.91632 18.75 9.91632 19.0006C9.91632 19.2513 9.82277 19.4929 9.65399 19.6782C9.48522 19.8635 9.25336 19.9792 9.0038 20.0025Z" fill="#E04F4A"/>
<path fill-rule="evenodd" clip-rule="evenodd" d="M21.4983 14.9971C20.2125 14.9971 18.9555 15.3784 17.8864 16.0927C16.8173 16.8071 15.984 17.8224 15.492 19.0104C14.9999 20.1983 14.8711 21.5055 15.122 22.7666C15.3728 24.0277 15.992 25.1862 16.9012 26.0954C17.8105 27.0046 18.9689 27.6238 20.23 27.8746C21.4911 28.1255 22.7983 27.9967 23.9862 27.5047C25.1742 27.0126 26.1895 26.1793 26.9039 25.1102C27.6182 24.0411 27.9995 22.7841 27.9995 21.4983C27.9995 19.7741 27.3146 18.1205 26.0954 16.9012C24.8762 15.682 23.2225 14.9971 21.4983 14.9971ZM23.6245 22.207C23.7193 22.2992 23.7946 22.4094 23.846 22.5311C23.8974 22.6528 23.9239 22.7837 23.9239 22.9158C23.9239 23.0479 23.8974 23.1787 23.846 23.3005C23.7946 23.4222 23.7193 23.5324 23.6245 23.6245C23.5318 23.7182 23.4214 23.7925 23.2998 23.8433C23.1781 23.894 23.0476 23.9201 22.9158 23.9201C22.784 23.9201 22.6535 23.894 22.5318 23.8433C22.4102 23.7925 22.2998 23.7182 22.2071 23.6245L21.5071 22.9245L20.7983 23.6245C20.7056 23.7182 20.5952 23.7925 20.4735 23.8433C20.3519 23.894 20.2214 23.9201 20.0896 23.9201C19.9578 23.9201 19.8273 23.894 19.7056 23.8433C19.5839 23.7925 19.4736 23.7182 19.3808 23.6245C19.2874 23.5325 19.2133 23.4229 19.1626 23.302C19.112 23.181 19.086 23.0513 19.086 22.9202C19.086 22.7891 19.112 22.6593 19.1626 22.5384C19.2133 22.4174 19.2874 22.3078 19.3808 22.2158L20.0896 21.5071L19.3808 20.7983C19.2874 20.7063 19.2133 20.5967 19.1626 20.4757C19.112 20.3548 19.086 20.225 19.086 20.0939C19.086 19.9628 19.112 19.8331 19.1626 19.7121C19.2133 19.5912 19.2874 19.4816 19.3808 19.3896C19.4736 19.2959 19.5839 19.2216 19.7056 19.1708C19.8273 19.1201 19.9578 19.094 20.0896 19.094C20.2214 19.094 20.3519 19.1201 20.4735 19.1708C20.5952 19.2216 20.7056 19.2959 20.7983 19.3896L21.5071 20.0983L22.2071 19.3896C22.2998 19.2959 22.4102 19.2216 22.5318 19.1708C22.6535 19.1201 22.784 19.094 22.9158 19.094C23.0476 19.094 23.1781 19.1201 23.2998 19.1708C23.4214 19.2216 23.5318 19.2959 23.6245 19.3896C23.7179 19.4816 23.7921 19.5912 23.8427 19.7121C23.8933 19.8331 23.9194 19.9628 23.9194 20.0939C23.9194 20.225 23.8933 20.3548 23.8427 20.4757C23.7921 20.5967 23.7179 20.7063 23.6245 20.7983L22.9158 21.5071L23.6245 22.207Z" fill="#E04F4A"/>
</svg>
