<svg width="39" height="48" viewBox="0 0 39 48" fill="none" xmlns="http://www.w3.org/2000/svg">
<path d="M38.036 39.5829L35.8924 12.5721C35.7588 10.8319 34.2871 9.46866 32.5418 9.46866H28.3078V9.27834C28.3078 4.16222 24.1456 0 19.0295 0C13.9133 0 9.75112 4.16222 9.75112 9.27834V9.46866H5.51718C3.77184 9.46866 2.30006 10.8318 2.16693 12.5684L0.0226802 39.5866C-0.143257 41.7499 0.607211 43.9036 2.08152 45.4953C3.55584 47.087 5.6458 48 7.81546 48H30.2434C32.4129 48 34.503 47.0871 35.9774 45.4953C37.4517 43.9035 38.2021 41.7499 38.036 39.5829ZM12.5627 9.27834C12.5627 5.71256 15.4638 2.81156 19.0295 2.81156C22.5951 2.81156 25.4962 5.71266 25.4962 9.27834V9.46866H12.5627V9.27834ZM33.9146 43.5848C32.9567 44.6189 31.653 45.1884 30.2434 45.1884H7.81556C6.40593 45.1884 5.10224 44.6189 4.14431 43.5848C3.18646 42.5507 2.71827 41.2071 2.8259 39.8053L4.96996 12.787C4.99171 12.5028 5.23209 12.2802 5.51718 12.2802H9.75112V15.7429C9.75112 16.5192 10.3806 17.1487 11.1569 17.1487C11.9332 17.1487 12.5627 16.5192 12.5627 15.7429V12.2802H25.4962V15.7429C25.4962 16.5192 26.1257 17.1487 26.902 17.1487C27.6784 17.1487 28.3078 16.5192 28.3078 15.7429V12.2802H32.5418C32.8268 12.2802 33.0672 12.5029 33.0893 12.7908L35.2329 39.8016C35.3407 41.2071 34.8725 42.5506 33.9146 43.5848Z" fill="#825092"/>
<path d="M25.3627 23.8385C24.8139 23.2895 23.9237 23.2895 23.3748 23.8385L17.0977 30.1156L14.684 27.7019C14.1351 27.1529 13.2449 27.1529 12.6959 27.7019C12.1469 28.2509 12.1469 29.141 12.6959 29.69L16.1036 33.0977C16.3781 33.3722 16.738 33.5096 17.0976 33.5096C17.4572 33.5096 17.8171 33.3723 18.0915 33.0977L25.3626 25.8267C25.9117 25.2776 25.9117 24.3875 25.3627 23.8385Z" fill="#825092"/>
</svg>
