<svg width="45" height="45" viewBox="0 0 45 45" fill="none" xmlns="http://www.w3.org/2000/svg">
<path fill-rule="evenodd" clip-rule="evenodd" d="M32.8125 29.0625H31.875C30.3216 29.0625 29.0625 30.3216 29.0625 31.875C29.0625 33.4284 30.3216 34.6875 31.875 34.6875H35.625C36.1425 34.6875 36.5625 35.1075 36.5625 35.625C36.5625 36.1425 36.1425 36.5625 35.625 36.5625H31.875C31.3575 36.5625 30.9375 36.1425 30.9375 35.625C30.9375 35.1075 30.5175 34.6875 30 34.6875C29.4825 34.6875 29.0625 35.1075 29.0625 35.625C29.0625 37.1784 30.3216 38.4375 31.875 38.4375H32.8125V39.375C32.8125 39.8925 33.2325 40.3125 33.75 40.3125C34.2675 40.3125 34.6875 39.8925 34.6875 39.375V38.4375H35.625C37.1784 38.4375 38.4375 37.1784 38.4375 35.625C38.4375 34.0716 37.1784 32.8125 35.625 32.8125H31.875C31.3575 32.8125 30.9375 32.3925 30.9375 31.875C30.9375 31.3575 31.3575 30.9375 31.875 30.9375H35.625C36.1425 30.9375 36.5625 31.3575 36.5625 31.875C36.5625 32.3925 36.9825 32.8125 37.5 32.8125C38.0175 32.8125 38.4375 32.3925 38.4375 31.875C38.4375 30.3216 37.1784 29.0625 35.625 29.0625H34.6875V28.125C34.6875 27.6075 34.2675 27.1875 33.75 27.1875C33.2325 27.1875 32.8125 27.6075 32.8125 28.125V29.0625Z" fill="#825092"/>
<path fill-rule="evenodd" clip-rule="evenodd" d="M16.875 10.3125H30C30.5175 10.3125 30.9375 9.8925 30.9375 9.375C30.9375 8.8575 30.5175 8.4375 30 8.4375H16.875C16.3575 8.4375 15.9375 8.8575 15.9375 9.375C15.9375 9.8925 16.3575 10.3125 16.875 10.3125Z" fill="#825092"/>
<path fill-rule="evenodd" clip-rule="evenodd" d="M16.875 15.9375H30C30.5175 15.9375 30.9375 15.5175 30.9375 15C30.9375 14.4825 30.5175 14.0625 30 14.0625H16.875C16.3575 14.0625 15.9375 14.4825 15.9375 15C15.9375 15.5175 16.3575 15.9375 16.875 15.9375Z" fill="#825092"/>
<path fill-rule="evenodd" clip-rule="evenodd" d="M16.875 21.5625H30C30.5175 21.5625 30.9375 21.1425 30.9375 20.625C30.9375 20.1075 30.5175 19.6875 30 19.6875H16.875C16.3575 19.6875 15.9375 20.1075 15.9375 20.625C15.9375 21.1425 16.3575 21.5625 16.875 21.5625Z" fill="#825092"/>
<path fill-rule="evenodd" clip-rule="evenodd" d="M16.875 27.1875H22.5C23.0175 27.1875 23.4375 26.7675 23.4375 26.25C23.4375 25.7325 23.0175 25.3125 22.5 25.3125H16.875C16.3575 25.3125 15.9375 25.7325 15.9375 26.25C15.9375 26.7675 16.3575 27.1875 16.875 27.1875Z" fill="#825092"/>
<path fill-rule="evenodd" clip-rule="evenodd" d="M11.25 10.3125H13.125C13.6425 10.3125 14.0625 9.8925 14.0625 9.375C14.0625 8.8575 13.6425 8.4375 13.125 8.4375H11.25C10.7325 8.4375 10.3125 8.8575 10.3125 9.375C10.3125 9.8925 10.7325 10.3125 11.25 10.3125Z" fill="#825092"/>
<path fill-rule="evenodd" clip-rule="evenodd" d="M11.25 15.9375H13.125C13.6425 15.9375 14.0625 15.5175 14.0625 15C14.0625 14.4825 13.6425 14.0625 13.125 14.0625H11.25C10.7325 14.0625 10.3125 14.4825 10.3125 15C10.3125 15.5175 10.7325 15.9375 11.25 15.9375Z" fill="#825092"/>
<path fill-rule="evenodd" clip-rule="evenodd" d="M11.25 21.5625H13.125C13.6425 21.5625 14.0625 21.1425 14.0625 20.625C14.0625 20.1075 13.6425 19.6875 13.125 19.6875H11.25C10.7325 19.6875 10.3125 20.1075 10.3125 20.625C10.3125 21.1425 10.7325 21.5625 11.25 21.5625Z" fill="#825092"/>
<path fill-rule="evenodd" clip-rule="evenodd" d="M11.25 27.1875H13.125C13.6425 27.1875 14.0625 26.7675 14.0625 26.25C14.0625 25.7325 13.6425 25.3125 13.125 25.3125H11.25C10.7325 25.3125 10.3125 25.7325 10.3125 26.25C10.3125 26.7675 10.7325 27.1875 11.25 27.1875Z" fill="#825092"/>
<path fill-rule="evenodd" clip-rule="evenodd" d="M33.75 44.0625C33.3703 44.0625 5.625 44.0625 5.625 44.0625C3.03656 44.0625 0.9375 41.9634 0.9375 39.375V37.5C0.9375 35.9466 2.19656 34.6875 3.75 34.6875H4.6875V5.625C4.6875 4.38188 5.18157 3.18937 6.06 2.30999C6.93938 1.43155 8.13188 0.9375 9.375 0.9375H39.375C41.9634 0.9375 44.0625 3.03656 44.0625 5.625V7.5C44.0625 9.05344 42.8034 10.3125 41.25 10.3125H36.5625V23.8266C40.8891 25.0519 44.0625 29.0334 44.0625 33.75C44.0625 39.4416 39.4416 44.0625 33.75 44.0625ZM23.8266 36.5625H3.75C3.2325 36.5625 2.8125 36.9825 2.8125 37.5V39.375C2.8125 40.9284 4.07156 42.1875 5.625 42.1875H27.8222C25.9125 40.8422 24.4791 38.8659 23.8266 36.5625ZM33.75 25.3125C38.4066 25.3125 42.1875 29.0934 42.1875 33.75C42.1875 38.4066 38.4066 42.1875 33.75 42.1875C29.0934 42.1875 25.3125 38.4066 25.3125 33.75C25.3125 29.0934 29.0934 25.3125 33.75 25.3125ZM34.6875 23.4797V5.625C34.6875 4.56938 35.0363 3.59625 35.625 2.8125H9.375C8.62875 2.8125 7.91344 3.10875 7.38656 3.63656C6.85875 4.16344 6.5625 4.87875 6.5625 5.625V34.6875H23.4797C23.4516 34.3781 23.4375 34.0659 23.4375 33.75C23.4375 28.0584 28.0584 23.4375 33.75 23.4375C34.0659 23.4375 34.3781 23.4516 34.6875 23.4797ZM39.375 2.8125C37.8216 2.8125 36.5625 4.07156 36.5625 5.625V8.4375H41.25C41.7675 8.4375 42.1875 8.0175 42.1875 7.5V5.625C42.1875 4.07156 40.9284 2.8125 39.375 2.8125Z" fill="#825092"/>
</svg>
