<svg width="58" height="58" viewBox="0 0 58 58" fill="none" xmlns="http://www.w3.org/2000/svg">
<path d="M47.6976 52.7761L9.56686 52.4989L9.60151 47.7326C9.62448 44.5723 10.9019 41.5506 13.1528 39.3322C15.4037 37.1138 18.4437 35.8804 21.604 35.9034L35.903 36.0073C39.0633 36.0303 42.085 37.3077 44.3034 39.5586C46.5218 41.8095 47.7552 44.8495 47.7322 48.0098L47.6976 52.7761ZM28.7881 31.189C26.9104 31.1754 25.0537 30.792 23.324 30.0608C21.5944 29.3296 20.0258 28.2649 18.7076 26.9274C17.3895 25.59 16.3477 24.006 15.6417 22.266C14.9357 20.5259 14.5794 18.6638 14.5931 16.7861C14.6067 14.9083 14.9901 13.0516 15.7213 11.322C16.4525 9.59236 17.5172 8.0237 18.8546 6.70557C20.1921 5.38743 21.776 4.34564 23.5161 3.63965C25.2562 2.93367 27.1182 2.57733 28.996 2.59099C32.7883 2.61855 36.4144 4.15149 39.0765 6.85257C41.7386 9.55365 43.2186 13.2016 43.1911 16.9939C43.1635 20.7863 41.6306 24.4123 38.9295 27.0744C36.2284 29.7365 32.5805 31.2166 28.7881 31.189Z" fill="white" fill-opacity="0.21"/>
</svg>
