<svg width="74" height="74" viewBox="0 0 74 74" fill="none" xmlns="http://www.w3.org/2000/svg">
<g clip-path="url(#clip0_1585_1505)">
<rect x="3" y="3" width="68" height="68" rx="34" fill="#ECECEC"/>
<path d="M59.6724 56.1368C59.5177 56.4037 59.2952 56.6253 59.0272 56.7794C58.7592 56.9335 58.4553 57.0145 58.1459 57.0145H15.8522C15.543 57.0141 15.2394 56.9328 14.9717 56.7786C14.7041 56.6244 14.4819 56.4028 14.3274 56.1361C14.173 55.8693 14.0917 55.5667 14.0918 55.2588C14.0919 54.9508 14.1733 54.6483 14.3279 54.3816C17.6827 48.6047 22.8527 44.4624 28.8862 42.4988C25.9017 40.7292 23.583 38.0328 22.2861 34.8236C20.9892 31.6144 20.7858 28.07 21.7071 24.7345C22.6285 21.399 24.6236 18.457 27.3861 16.3603C30.1486 14.2635 33.5258 13.1279 36.999 13.1279C40.4723 13.1279 43.8495 14.2635 46.612 16.3603C49.3745 18.457 51.3696 21.399 52.291 24.7345C53.2123 28.07 53.0089 31.6144 51.712 34.8236C50.4151 38.0328 48.0964 40.7292 45.1119 42.4988C51.1454 44.4624 56.3154 48.6047 59.6702 54.3816C59.8252 54.6483 59.907 54.9508 59.9074 55.2589C59.9078 55.567 59.8267 55.8698 59.6724 56.1368Z" fill="#B0B0B0"/>
</g>
<rect x="1.5" y="1.5" width="71" height="71" rx="35.5" stroke="white" stroke-width="3"/>
<defs>
<clipPath id="clip0_1585_1505">
<rect x="3" y="3" width="68" height="68" rx="34" fill="white"/>
</clipPath>
</defs>
</svg>
