<svg width="41" height="52" viewBox="0 0 41 52" fill="none" xmlns="http://www.w3.org/2000/svg">
<path d="M16.2317 48.3287C16.0571 48.3297 15.8862 48.2794 15.7407 48.1844C15.5952 48.0893 15.4818 47.9538 15.4148 47.795C15.3479 47.6362 15.3305 47.4613 15.3648 47.2927C15.3992 47.1242 15.4837 46.9695 15.6077 46.8484L17.4797 45.0132C17.568 44.9265 17.674 44.8592 17.7907 44.816C17.9074 44.7727 18.0321 44.7543 18.1565 44.7622L27.0775 45.3508L32.2632 40.2435L34.3989 34.989C33.7151 34.6368 32.9237 34.5444 32.1753 34.7293C31.2963 35.015 30.6108 35.8893 30.1186 37.3262C30.0757 37.4533 30.0035 37.5689 29.9077 37.6638L27.4203 40.1136C27.2522 40.2555 27.0359 40.3296 26.8147 40.3211C26.5935 40.3127 26.3837 40.2224 26.2271 40.0682C26.0706 39.9141 25.9789 39.7074 25.9704 39.4895C25.9618 39.2717 26.0371 39.0587 26.181 38.8931L28.5278 36.5818C29.2045 34.7033 30.2856 33.526 31.6479 33.1192C32.3976 32.94 33.1776 32.9206 33.9355 33.0625C34.6934 33.2043 35.4118 33.504 36.0425 33.9416C36.204 34.0541 36.3223 34.217 36.3781 34.404C36.4339 34.5909 36.4241 34.7909 36.3501 34.9717L33.8628 41.0918C33.8194 41.2019 33.7536 41.302 33.6694 41.3861L28.0795 46.8917C27.9912 46.9784 27.8852 47.0456 27.7686 47.0889C27.6519 47.1322 27.5272 47.1505 27.4027 47.1427L18.4817 46.5541L16.8997 48.1122C16.8094 48.1917 16.7035 48.2519 16.5886 48.2891C16.4737 48.3263 16.3522 48.3398 16.2317 48.3287Z" fill="#825092"/>
<path d="M24.318 42.8152H24.2301L20.8463 42.4776C20.7314 42.4657 20.6201 42.4317 20.5186 42.3774C20.4171 42.3231 20.3274 42.2496 20.2548 42.1612C20.1821 42.0727 20.1279 41.9711 20.0952 41.862C20.0624 41.7529 20.0519 41.6385 20.064 41.5254C20.0761 41.4123 20.1107 41.3026 20.1658 41.2026C20.2209 41.1027 20.2955 41.0144 20.3853 40.9428C20.4751 40.8713 20.5783 40.8179 20.6891 40.7856C20.7999 40.7534 20.916 40.743 21.0309 40.755L24.362 41.0926C24.6081 41.0926 25.9704 40.9974 26.0055 40.0884C26.0051 39.7391 25.8664 39.4037 25.6188 39.1535C25.4339 38.9534 25.2106 38.7914 24.9616 38.6769C24.7126 38.5625 24.4431 38.4979 24.1686 38.487L20.275 38.1926C20.1491 38.1837 20.0266 38.1481 19.9159 38.0884C19.8051 38.0286 19.7088 37.9461 19.6334 37.8464C19.2235 37.3451 18.713 36.9326 18.1337 36.6347C17.5545 36.3368 16.919 36.1599 16.2671 36.1151C14.2192 36.1151 13.2436 36.9807 9.42913 40.755C9.26099 40.8968 9.04471 40.9709 8.82351 40.9625C8.60231 40.9541 8.39248 40.8637 8.23595 40.7096C8.07942 40.5554 7.98772 40.3487 7.97917 40.1309C7.97063 39.913 8.04587 39.7 8.18986 39.5344C11.9956 35.7861 13.4194 34.3838 16.2671 34.3838C17.1271 34.418 17.9708 34.6254 18.7463 34.9932C19.5217 35.3609 20.2125 35.8812 20.776 36.5219L24.2916 36.7816C24.795 36.8142 25.287 36.9441 25.7394 37.1639C26.1918 37.3837 26.5959 37.6892 26.9284 38.0628C27.4578 38.6412 27.7438 39.3964 27.7282 40.175C27.6667 42.2612 25.4694 42.8152 24.318 42.8152Z" fill="#825092"/>
<path d="M15.0008 51.9996C14.8852 52.0003 14.7705 51.9784 14.6634 51.9354C14.5563 51.8923 14.4589 51.8288 14.3768 51.7486L4.45383 41.9494C4.29013 41.7872 4.19824 41.5678 4.19824 41.3391C4.19824 41.1104 4.29013 40.891 4.45383 40.7289L6.94116 38.2791C7.10584 38.1178 7.3286 38.0273 7.5608 38.0273C7.793 38.0273 8.01576 38.1178 8.18044 38.2791L18.0946 48.0782C18.2583 48.2404 18.3502 48.4598 18.3502 48.6885C18.3502 48.9172 18.2583 49.1366 18.0946 49.2988L15.6161 51.7486C15.4524 51.9085 15.2314 51.9987 15.0008 51.9996ZM6.29955 41.3435L15.0008 49.9134L16.2401 48.6928L7.53883 40.1229L6.29955 41.3435Z" fill="#825092"/>
<path d="M11.4854 15.5824C11.3698 15.583 11.2551 15.5612 11.148 15.5181C11.0409 15.475 10.9435 15.4116 10.8614 15.3313L8.61138 13.1153L6.49318 13.8078C6.36078 13.8518 6.21962 13.8642 6.08141 13.8437C5.94321 13.8233 5.81194 13.7707 5.69851 13.6903C5.58508 13.6099 5.49275 13.504 5.42919 13.3814C5.36562 13.2588 5.33265 13.1231 5.33301 12.9854V7.79153C5.33353 7.61716 5.38752 7.447 5.48789 7.30335C5.58826 7.1597 5.73034 7.04925 5.89552 6.98648L19.9582 1.61945C20.1704 1.55591 20.3992 1.57376 20.5986 1.66941C20.7981 1.76506 20.9534 1.93145 21.0335 2.13519C21.1136 2.33893 21.1125 2.56495 21.0304 2.76792C20.9483 2.9709 20.7914 3.1358 20.591 3.22956L7.09085 8.38018V11.7822L8.56743 11.2974C8.7193 11.2504 8.88128 11.2449 9.03608 11.2815C9.19088 11.3181 9.33269 11.3954 9.44635 11.5052L10.6065 12.6305V10.3885C10.6064 10.2151 10.659 10.0457 10.7578 9.90215C10.8565 9.75861 10.9967 9.64758 11.1602 9.58343L25.97 3.79223C26.1868 3.70729 26.429 3.71064 26.6432 3.80155C26.8575 3.89246 27.0264 4.06348 27.1126 4.277C27.1989 4.49051 27.1955 4.72902 27.1031 4.94007C27.0108 5.15111 26.8372 5.31739 26.6204 5.40234L12.3644 10.9771V14.7167C12.3644 14.9463 12.2718 15.1665 12.1069 15.3288C11.9421 15.4912 11.7185 15.5824 11.4854 15.5824Z" fill="#825092"/>
<path d="M15.8801 32.8946C15.7782 32.8945 15.6771 32.8769 15.5813 32.8426L0.639656 27.4929C0.469787 27.4324 0.322966 27.3219 0.219171 27.1763C0.115375 27.0307 0.0596472 26.8571 0.0595703 26.6792V6.21526C0.0595703 5.98567 0.152171 5.76549 0.317 5.60315C0.481829 5.44081 0.705385 5.34961 0.938489 5.34961C1.17159 5.34961 1.39515 5.44081 1.55998 5.60315C1.72481 5.76549 1.81741 5.98567 1.81741 6.21526V26.0733L15.0012 30.791V11.565C15.0012 11.3354 15.0938 11.1152 15.2586 10.9529C15.4234 10.7905 15.647 10.6993 15.8801 10.6993C16.1132 10.6993 16.3368 10.7905 16.5016 10.9529C16.6664 11.1152 16.759 11.3354 16.759 11.565V32.0289C16.759 32.2585 16.6664 32.4787 16.5016 32.641C16.3368 32.8034 16.1132 32.8946 15.8801 32.8946Z" fill="#825092"/>
<path d="M30.8213 12.119C30.5882 12.119 30.3646 12.0278 30.1998 11.8654C30.035 11.7031 29.9424 11.4829 29.9424 11.2533V6.21526C29.9424 5.98567 30.035 5.76549 30.1998 5.60315C30.3646 5.44081 30.5882 5.34961 30.8213 5.34961C31.0544 5.34961 31.278 5.44081 31.4428 5.60315C31.6076 5.76549 31.7002 5.98567 31.7002 6.21526V11.2533C31.7002 11.4829 31.6076 11.7031 31.4428 11.8654C31.278 12.0278 31.0544 12.119 30.8213 12.119Z" fill="#825092"/>
<path d="M15.8808 32.8947C15.6742 32.8945 15.4743 32.8225 15.3161 32.6916C15.158 32.5606 15.0518 32.3789 15.0161 32.1785C14.9805 31.978 15.0176 31.7716 15.1211 31.5955C15.2246 31.4194 15.3878 31.2848 15.582 31.2153L27.0079 27.1208C27.1173 27.0784 27.2341 27.058 27.3516 27.0608C27.4691 27.0636 27.5848 27.0896 27.6919 27.1373C27.799 27.1849 27.8953 27.2532 27.9751 27.3381C28.055 27.4231 28.1167 27.5229 28.1566 27.6318C28.1966 27.7406 28.214 27.8562 28.2078 27.9718C28.2016 28.0874 28.172 28.2006 28.1206 28.3047C28.0692 28.4087 27.9972 28.5016 27.9087 28.5778C27.8203 28.654 27.7172 28.712 27.6056 28.7482L16.1797 32.8428C16.0839 32.877 15.9827 32.8946 15.8808 32.8947Z" fill="#825092"/>
<path d="M15.881 12.4304C15.7791 12.4302 15.678 12.4127 15.5822 12.3784L0.640578 7.02871C0.470902 6.96805 0.324302 6.85742 0.220701 6.71183C0.117101 6.56625 0.0615234 6.39278 0.0615234 6.215C0.0615234 6.03722 0.117101 5.86375 0.220701 5.71816C0.324302 5.57258 0.470902 5.46194 0.640578 5.40129L15.5822 0.0515707C15.7753 -0.0171902 15.9867 -0.0171902 16.1799 0.0515707L31.1215 5.40129C31.2911 5.46194 31.4377 5.57258 31.5413 5.71816C31.6449 5.86375 31.7005 6.03722 31.7005 6.215C31.7005 6.39278 31.6449 6.56625 31.5413 6.71183C31.4377 6.85742 31.2911 6.96805 31.1215 7.02871L16.1799 12.3784C16.0841 12.4127 15.9829 12.4302 15.881 12.4304ZM3.51464 6.215L15.881 10.6471L28.2474 6.215L15.881 1.78287L3.51464 6.215Z" fill="#825092"/>
<path d="M30.8214 29.432C28.9093 29.432 27.04 28.8735 25.4501 27.8272C23.8602 26.7809 22.621 25.2938 21.8893 23.5538C21.1575 21.8139 20.966 19.8993 21.3391 18.0522C21.7121 16.2051 22.6329 14.5084 23.985 13.1767C25.3372 11.845 27.0598 10.9381 28.9353 10.5707C30.8107 10.2033 32.7546 10.3918 34.5212 11.1125C36.2879 11.8332 37.7978 13.0537 38.8602 14.6196C39.9225 16.1855 40.4895 18.0265 40.4895 19.9098C40.4895 22.4353 39.4709 24.8573 37.6578 26.643C35.8447 28.4288 33.3856 29.432 30.8214 29.432ZM30.8214 12.119C29.2569 12.119 27.7276 12.5759 26.4267 13.432C25.1259 14.2881 24.112 15.5048 23.5133 16.9284C22.9146 18.352 22.7579 19.9185 23.0632 21.4298C23.3684 22.941 24.1218 24.3292 25.228 25.4188C26.3343 26.5084 27.7438 27.2504 29.2782 27.551C30.8127 27.8516 32.4031 27.6973 33.8486 27.1076C35.294 26.518 36.5294 25.5194 37.3986 24.2382C38.2678 22.957 38.7317 21.4507 38.7317 19.9098C38.7317 17.8436 37.8983 15.862 36.4148 14.4009C34.9314 12.9398 32.9194 12.119 30.8214 12.119Z" fill="#825092"/>
</svg>
