<svg width="46" height="57" viewBox="0 0 46 57" fill="none" xmlns="http://www.w3.org/2000/svg">
<path d="M40.2095 11.4338L34.5562 11.4382C34.5513 5.19119 29.4875 0.135344 23.2405 0.140213C16.9935 0.145081 11.9377 5.20882 11.9426 11.4558L6.28916 11.4602C3.17979 11.4626 0.637748 14.0087 0.640171 17.118L0.666608 51.0384C0.669031 54.1478 3.21504 56.6898 6.32441 56.6874L40.2448 56.661C43.3542 56.6586 45.8962 54.1125 45.8938 51.0032L45.8674 17.0828C45.8649 13.9734 43.3189 11.4314 40.2095 11.4338ZM17.6048 22.7582C17.606 24.3129 16.335 25.5859 14.7803 25.5871C13.2256 25.5883 11.9526 24.3173 11.9514 22.7626L11.947 17.1092L17.6004 17.1048L17.6048 22.7582ZM23.245 5.79361C26.3543 5.79119 28.9003 8.33323 28.9028 11.4426L17.596 11.4514C17.5935 8.34204 20.1356 5.79603 23.245 5.79361ZM34.565 22.745C34.5662 24.2997 33.2952 25.5727 31.7405 25.5739C30.1858 25.5751 28.9128 24.3041 28.9116 22.7494L28.9072 17.096L34.5606 17.0916L34.565 22.745Z" fill="white" fill-opacity="0.13"/>
</svg>
