<svg width="44" height="44" viewBox="0 0 44 44" fill="none" xmlns="http://www.w3.org/2000/svg">
<path d="M13.2706 35.0239C10.8759 35.0382 8.95015 37.0097 8.9645 39.405C8.97884 41.8003 10.9281 43.7485 13.3228 43.7342C15.7175 43.7198 17.665 41.7483 17.6506 39.353C17.6363 36.9576 15.6653 35.0095 13.2706 35.0239ZM0.0130449 2.43845C0.0202196 3.63611 1.00573 4.61016 2.20307 4.60298L4.38005 4.58994L12.3162 21.0708L9.40909 26.4017C7.83738 29.3292 9.94854 32.8661 13.2575 32.8463L37.2043 32.7028C38.4017 32.6957 39.3754 31.7099 39.3683 30.5122C39.3611 29.3146 38.3756 28.3405 37.1782 28.3477L13.2315 28.4911L15.6 24.1216L31.8185 24.0245C33.4513 24.0147 34.8827 23.1133 35.6148 21.7588L43.3237 7.57958C43.5052 7.24841 43.5971 6.87558 43.5903 6.49798C43.5836 6.12038 43.4783 5.7511 43.285 5.42668C43.0918 5.10225 42.8171 4.83393 42.4883 4.64827C42.1596 4.46261 41.788 4.36603 41.4105 4.36811L9.19117 4.56112L7.71394 1.45592C7.53675 1.08527 7.25767 0.77278 6.90936 0.555038C6.56106 0.337297 6.15795 0.223315 5.74723 0.226438L2.17698 0.247826C0.979641 0.254998 0.00587021 1.24078 0.0130449 2.43845ZM35.0404 34.8935C32.6457 34.9078 30.7199 36.8792 30.7343 39.2746C30.7486 41.6699 32.6979 43.6181 35.0926 43.6038C37.4872 43.5894 39.4348 41.6179 39.4204 39.2225C39.4061 36.8272 37.4351 34.8791 35.0404 34.8935Z" fill="white" fill-opacity="0.13"/>
</svg>
